<svg id="Layer_1" data-name="Layer 1" xmlns="http://www.w3.org/2000/svg" viewBox="0 0 168 168"><defs><style>.cls-1{fill:#fff;}.cls-1,.cls-2{stroke:#83c5be;stroke-miterlimit:10;stroke-width:4px;}.cls-2{fill:#ffddd2;}</style></defs><rect class="cls-1" x="2" y="2" width="164" height="164"/><path class="cls-2" d="M721.4,408a3.52,3.52,0,0,0,1.55.37,2.29,2.29,0,0,0,1.69-.83,2.94,2.94,0,0,0,.77-2.11,11.87,11.87,0,0,0-1.69-5.52L688.24,330a21.56,21.56,0,0,1-1-2.11,4.77,4.77,0,0,1-.23-1.57v-1.1a2.83,2.83,0,0,1,.46-1.93,2.13,2.13,0,0,1,1.55-.46H728.5q2.78,0,3.93,1.47t1.16,5V438.74q0,3.5-1.16,5t-3.93,1.47H708.76q-7.1,0-11.11-2.94t-8-10.86L653.39,360a3.25,3.25,0,0,0-1.39-.37,2.48,2.48,0,0,0-1.77.83,2.81,2.81,0,0,0-.85,2.11,13.78,13.78,0,0,0,1.69,5.52L686.55,438a19.38,19.38,0,0,1,1,2.11,4.77,4.77,0,0,1,.23,1.57v1.1a3.39,3.39,0,0,1-.38,1.84,1.89,1.89,0,0,1-1.62.55H646.29q-2.77,0-3.93-1.47t-1.16-5V343.79a26.38,26.38,0,0,0-.61-6.71,10.33,10.33,0,0,0-2.16-3.87,45.19,45.19,0,0,0-5.25-4.69,1.91,1.91,0,0,1-.77-1.65v-2.21a1.63,1.63,0,0,1,1.85-1.84H666q7.1,0,11.11,2.94t8,10.86Z" transform="translate(-599 -300)"/></svg>